<svg width="20" height="16" viewBox="0 0 20 16" fill="none" xmlns="http://www.w3.org/2000/svg">
<path fill-rule="evenodd" clip-rule="evenodd" d="M0 0.999997C0 0.447714 0.447714 0 0.999997 0H18.9999C19.5522 0 19.9999 0.447714 19.9999 0.999997V14.5C19.9999 15.0522 19.5522 15.5 18.9999 15.5H0.999997C0.447714 15.5 0 15.0522 0 14.5V0.999997ZM1.99999 1.99999V13.5H17.9999V1.99999H1.99999Z" fill="#9098B1"/>
<path fill-rule="evenodd" clip-rule="evenodd" d="M0.240754 0.349234C0.600171 -0.0700947 1.23147 -0.118663 1.6508 0.240754L9.99999 7.39705L18.3492 0.240754C18.7685 -0.118663 19.3998 -0.0700947 19.7592 0.349234C20.1186 0.768562 20.0701 1.39986 19.6507 1.75928L10.6508 9.47338C10.2763 9.79436 9.72369 9.79436 9.34921 9.47338L0.349234 1.75928C-0.0700947 1.39986 -0.118663 0.768562 0.240754 0.349234Z" fill="#9098B1"/>
</svg>
