<svg width="20" height="20" viewBox="0 0 20 20" fill="none" xmlns="http://www.w3.org/2000/svg">
<path fill-rule="evenodd" clip-rule="evenodd" d="M10 1.99983C8.3971 1.99983 7.09766 3.29916 7.09766 4.90196C7.09766 6.50476 8.3971 7.80409 10 7.80409C11.603 7.80409 12.9024 6.50476 12.9024 4.90196C12.9024 3.29916 11.603 1.99983 10 1.99983ZM5.09766 4.90196C5.09766 2.19468 7.29253 0 10 0C12.7076 0 14.9024 2.19468 14.9024 4.90196C14.9024 7.60924 12.7076 9.80392 10 9.80392C7.29253 9.80392 5.09766 7.60924 5.09766 4.90196Z" fill="#9098B1"/>
<path fill-rule="evenodd" clip-rule="evenodd" d="M7.51785 13.3888C4.47035 13.3888 2 15.8589 2 18.9061V18.9973C2 19.5495 1.55229 19.9972 1 19.9972C0.447715 19.9972 0 19.5495 0 18.9973V18.9061C0 14.7544 3.36578 11.3889 7.51785 11.3889H12.4822C16.6342 11.3889 20 14.7544 20 18.9061V18.9973C20 19.5495 19.5523 19.9972 19 19.9972C18.4477 19.9972 18 19.5495 18 18.9973V18.9061C18 15.8589 15.5297 13.3888 12.4822 13.3888H7.51785Z" fill="#9098B1"/>
</svg>
