<svg width="20" height="20" viewBox="0 0 20 20" fill="none" xmlns="http://www.w3.org/2000/svg">
<path fill-rule="evenodd" clip-rule="evenodd" d="M10 1.99983C8.39708 1.99983 7.09764 3.29915 7.09764 4.90195C7.09764 6.50475 8.39708 7.80408 10 7.80408C11.603 7.80408 12.9024 6.50475 12.9024 4.90195C12.9024 3.29915 11.603 1.99983 10 1.99983ZM5.09764 4.90195C5.09764 2.19468 7.29251 0 10 0C12.7075 0 14.9024 2.19468 14.9024 4.90195C14.9024 7.60923 12.7075 9.80391 10 9.80391C7.29251 9.80391 5.09764 7.60923 5.09764 4.90195Z" fill="#9098B1"/>
<path fill-rule="evenodd" clip-rule="evenodd" d="M7.51783 13.3888C4.47035 13.3888 2 15.8589 2 18.9061V18.9972C2 19.5495 1.55228 19.9971 0.999999 19.9971C0.447715 19.9971 0 19.5495 0 18.9972V18.9061C0 14.7544 3.36578 11.3889 7.51783 11.3889H12.4821C16.6342 11.3889 20 14.7544 20 18.9061V18.9972C20 19.5495 19.5523 19.9971 19 19.9971C18.4477 19.9971 18 19.5495 18 18.9972V18.9061C18 15.8589 15.5296 13.3888 12.4821 13.3888H7.51783Z" fill="#9098B1"/>
</svg>
